<svg width="28" height="28" viewBox="0 0 28 28" fill="none" xmlns="http://www.w3.org/2000/svg">
<path d="M5.38095 4.66667H23.3002C25.1203 4.66667 26.4056 6.44986 25.83 8.17661L23.6078 14.8433C23.2448 15.9322 22.2258 16.6667 21.078 16.6667H7.09523M5.38095 4.66667L5.32708 4.28954C5.13941 2.97581 4.01428 2 2.68722 2H1.66667M5.38095 4.66667L7.09523 16.6667M7.09523 16.6667L7.33959 18.3771C7.52727 19.6909 8.65239 20.6667 9.97946 20.6667H21.6667M21.6667 20.6667C20.1939 20.6667 19 21.8606 19 23.3333C19 24.8061 20.1939 26 21.6667 26C23.1394 26 24.3333 24.8061 24.3333 23.3333C24.3333 21.8606 23.1394 20.6667 21.6667 20.6667ZM13.6667 23.3333C13.6667 24.8061 12.4728 26 11 26C9.52725 26 8.33334 24.8061 8.33334 23.3333C8.33334 21.8606 9.52725 20.6667 11 20.6667C12.4728 20.6667 13.6667 21.8606 13.6667 23.3333Z" stroke="#C9C5C4" stroke-width="2.18293" stroke-linecap="round" stroke-linejoin="round"/>
</svg>
